<?xml version="1.0" standalone="no"?>
<!DOCTYPE svg PUBLIC "-//W3C//DTD SVG 20010904//EN"
 "http://www.w3.org/TR/2001/REC-SVG-20010904/DTD/svg10.dtd">
<svg version="1.0" xmlns="http://www.w3.org/2000/svg"
 width="300.000000pt" height="300.000000pt" viewBox="0 0 300.000000 300.000000"
 preserveAspectRatio="xMidYMid meet">
<metadata>
Created by potrace 1.11, written by Peter Selinger 2001-2013
</metadata>
<g transform="translate(0.000000,300.000000) scale(0.100000,-0.100000)"
fill="#000000" stroke="none">
<path d="M1429 2907 c-19 -13 -196 -142 -394 -287 -198 -145 -461 -338 -585
-429 -383 -280 -407 -299 -420 -331 -17 -42 -11 -68 70 -323 40 -122 85 -262
100 -312 64 -200 142 -442 155 -480 20 -58 161 -502 176 -553 7 -23 27 -59 45
-80 l32 -37 890 0 891 0 30 29 c16 15 36 49 44 75 8 25 52 161 97 301 45 140
100 311 122 380 22 69 48 150 58 180 10 30 53 163 95 295 42 132 92 287 111
344 39 119 42 154 15 195 -10 16 -167 137 -348 270 -181 132 -469 345 -641
471 -430 317 -427 315 -472 315 -22 0 -51 -9 -71 -23z m770 -541 c358 -263
650 -480 648 -482 -1 -2 -38 -10 -82 -19 -281 -58 -507 -237 -590 -466 l-20
-58 -52 47 c-28 26 -80 74 -115 107 -94 87 -299 278 -330 307 -15 13 -80 73
-144 134 -65 60 -142 132 -172 159 -30 28 -68 65 -85 83 -17 17 -34 32 -39 32
-5 0 22 -31 59 -69 38 -38 235 -238 438 -446 204 -207 372 -380 373 -386 2 -5
-10 -10 -27 -10 -17 -1 -34 -2 -38 -3 -5 -1 -24 -6 -43 -10 -116 -25 -241 -79
-341 -146 -101 -69 -211 -207 -250 -313 -7 -20 -15 -34 -19 -32 -3 2 -150 242
-325 534 -176 292 -321 529 -322 527 -2 -2 14 -34 35 -72 21 -38 57 -103 79
-144 22 -41 114 -210 203 -375 89 -165 178 -329 198 -365 19 -36 48 -88 63
-116 l29 -52 -57 -7 c-289 -34 -534 -189 -639 -405 -22 -43 -41 -79 -44 -79
-3 0 -22 52 -42 117 -56 179 -214 672 -360 1122 -100 309 -106 333 -96 355 5
11 161 130 345 265 315 230 522 382 876 642 165 121 182 131 213 114 12 -6
314 -227 673 -490z m711 -564 c0 -9 -11 -51 -24 -92 -13 -41 -61 -190 -106
-330 -45 -140 -88 -273 -95 -295 -8 -22 -48 -148 -90 -280 -42 -132 -81 -252
-86 -266 -10 -26 -13 -27 -107 -31 -82 -3 -107 -8 -162 -34 -36 -17 -84 -50
-107 -73 -52 -52 -100 -147 -109 -212 -4 -27 -9 -50 -13 -50 -27 -5 -1355 -2
-1364 3 -27 17 50 179 133 278 108 131 349 236 561 245 65 3 79 9 79 35 0 33
47 146 86 207 76 119 211 222 365 278 90 32 195 55 261 57 57 1 73 13 83 65
12 66 83 198 142 262 94 105 228 182 379 220 141 35 174 38 174 13z"/>
</g>
</svg>
