<?xml version="1.0" encoding="utf-8"?>
<!-- Generator: Adobe Illustrator 18.0.0, SVG Export Plug-In . SVG Version: 6.00 Build 0)  -->
<!DOCTYPE svg PUBLIC "-//W3C//DTD SVG 1.1//EN" "http://www.w3.org/Graphics/SVG/1.1/DTD/svg11.dtd">
<svg version="1.1" id="Calque_1" xmlns="http://www.w3.org/2000/svg" xmlns:xlink="http://www.w3.org/1999/xlink" x="0px" y="0px"
	 viewBox="0 0 100 100" enable-background="new 0 0 100 100" xml:space="preserve">
<g>
	<path fill="#FF4732" d="M84.8,16.6L84.2,16C65.7-2.5,35.3-2.8,16.5,15.3C-2.7,33.8-3.3,64.5,15.2,83.7l0.6,0.6
		c18.5,18.5,48.9,18.8,67.7,0.6c9.3-9,14.5-21,14.8-33.9C98.5,38.1,93.7,25.9,84.8,16.6z M18.3,81.9l-0.6-0.6
		C0.5,63.5,1.1,35,18.9,17.8C36.3,1,64.5,1.2,81.7,18.4l0.6,0.6c8.3,8.6,12.8,20,12.6,31.9c-0.2,12-5.1,23.2-13.7,31.5
		C63.7,99.3,35.5,99,18.3,81.9z"/>
	<path fill="#FF4732" d="M73.3,48.8l-21.5-0.4l0.4-21.6c0-1-0.7-1.7-1.7-1.8c-1,0-1.7,0.7-1.8,1.7l-0.4,21.6L26.7,48
		c-1,0-1.7,0.7-1.8,1.7c0,0.5,0.2,0.9,0.5,1.3c0.3,0.3,0.7,0.5,1.2,0.5l21.5,0.4l-0.4,21.5c0,0.5,0.2,0.9,0.5,1.3
		c0.3,0.3,0.7,0.5,1.2,0.5c1,0,1.7-0.7,1.8-1.7l0.4-21.5l21.5,0.4c1,0,1.7-0.7,1.8-1.7C75,49.6,74.3,48.8,73.3,48.8z"/>
</g>
</svg>
