<?xml version="1.0" encoding="utf-8"?>
<!-- Generator: Adobe Illustrator 18.0.0, SVG Export Plug-In . SVG Version: 6.00 Build 0)  -->
<!DOCTYPE svg PUBLIC "-//W3C//DTD SVG 1.1//EN" "http://www.w3.org/Graphics/SVG/1.1/DTD/svg11.dtd">
<svg version="1.1" id="Calque_1" xmlns="http://www.w3.org/2000/svg" xmlns:xlink="http://www.w3.org/1999/xlink" x="0px" y="0px"
	 viewBox="140 128 120 144" enable-background="new 140 128 120 144" xml:space="preserve">
<g>
	<g>
		<g enable-background="new    ">
			<path fill="#FF4732" d="M165.9,248c1-0.8,2-1.2,3.2-1.2c0.8,0,1.6,0.1,2.2,0.4s1.2,0.7,1.8,1.3l-1.8,2.2
				c-0.3-0.3-0.6-0.5-0.9-0.7c-0.3-0.1-0.6-0.2-1-0.2c-0.5,0-0.8,0.1-1.2,0.2c-0.3,0.2-0.5,0.4-0.5,0.8c0,0.4,0.2,0.8,0.5,1
				c0.3,0.2,0.8,0.5,1.3,0.7l1.3,0.7c0.9,0.5,1.6,1,2.1,1.7s0.7,1.5,0.7,2.4c0,1.2-0.5,2.3-1.5,3.1c-1,0.9-2.1,1.3-3.4,1.3
				c-0.8,0-1.7-0.2-2.4-0.4c-0.8-0.3-1.4-0.8-2-1.5l2-2.4c0.3,0.4,0.7,0.8,1.1,1c0.4,0.3,0.9,0.4,1.3,0.4c0.4,0,0.8-0.1,1.1-0.4
				c0.3-0.3,0.5-0.6,0.5-1c0-0.4-0.2-0.7-0.4-0.9c-0.3-0.3-0.8-0.6-1.4-0.9l-1.3-0.7c-0.8-0.4-1.4-1-1.9-1.6
				c-0.5-0.6-0.7-1.4-0.7-2.4C164.4,249.7,164.9,248.8,165.9,248z"/>
		</g>
		<g enable-background="new    ">
			<path fill="#FF4732" d="M177.3,261.8c-0.8-0.7-1.3-1.5-1.7-2.2s-0.5-1.7-0.5-2.8v-3.2H173v-3h2.1v-3.3h3.3v3.3h2.2v3h-2.2v3.2
				c0,1.5,0.6,2.6,1.8,3.5L177.3,261.8z"/>
			<path fill="#FF4732" d="M190.7,261.7c-0.2-0.1-0.4-0.3-0.6-0.6c-0.2-0.3-0.4-0.5-0.6-0.8c-0.4,0.3-0.8,0.7-1.4,1
				c-0.5,0.3-1.2,0.5-1.9,0.5c-1,0-1.9-0.3-2.7-0.9c-0.8-0.6-1.1-1.4-1.1-2.4v-7.9h3.3v6.3c0,1.2,0.3,1.8,0.9,1.8
				c0.5,0,0.9-0.2,1.2-0.6s0.5-0.8,0.7-1.2v-6.2h3.3v6.1c0,1.5,0.6,2.6,1.8,3.5L190.7,261.7z"/>
			<path fill="#FF4732" d="M202.1,254.2c-0.2-0.3-0.5-0.6-1-0.8c-0.5-0.2-0.9-0.3-1.5-0.3c-0.6,0-1.1,0.3-1.4,0.8
				c-0.3,0.6-0.5,1.2-0.5,1.9c0,0.8,0.2,1.4,0.5,1.9c0.3,0.5,0.8,0.8,1.4,0.8c0.5,0,1-0.1,1.5-0.3c0.4-0.2,0.8-0.5,1-0.8l2,2
				c-0.6,0.7-1.2,1.3-1.9,1.6c-0.7,0.3-1.6,0.5-2.6,0.5c-1.5,0-2.7-0.6-3.7-1.8c-1-1.2-1.5-2.5-1.5-4.1s0.5-2.9,1.5-4.1
				c1-1.2,2.3-1.8,3.7-1.8c1,0,1.8,0.2,2.6,0.5c0.7,0.3,1.3,0.8,1.9,1.6L202.1,254.2z"/>
			<path fill="#FF4732" d="M209,251.6c0.3-0.3,0.7-0.7,1.1-1c0.5-0.3,1.1-0.5,2-0.5c0.8,0,1.5,0.3,2.2,0.8c0.7,0.6,1,1.3,1,2.4v8
				H212v-6.3v-0.3c0-0.5-0.1-0.8-0.2-1.1c-0.1-0.3-0.3-0.4-0.7-0.4c-0.8,0-1.4,0.2-1.6,0.7c-0.3,0.4-0.5,0.9-0.6,1.4v6.1h-3.3v-16.1
				h3.3L209,251.6L209,251.6z"/>
			<path fill="#FF4732" d="M226.6,259.6c-0.4,0.5-0.9,0.9-1.6,1.4s-1.6,0.7-2.8,0.7c-1.4,0-2.6-0.6-3.6-1.8c-1-1.2-1.4-2.5-1.4-4.1
				s0.5-2.9,1.4-4.1c0.9-1.2,2.2-1.8,3.6-1.8c1.2,0,2.1,0.3,2.9,0.9c0.8,0.6,1.3,1.4,1.7,2.5c-0.7,1.3-1.5,2.2-2.6,2.9s-2.4,1-3.9,1
				c0,0.4,0.2,0.7,0.5,1c0.4,0.3,0.8,0.4,1.3,0.4c0.8,0,1.3-0.1,1.6-0.3c0.3-0.2,0.6-0.4,0.8-0.7L226.6,259.6z M223.3,253.4
				c-0.2-0.2-0.6-0.3-1.1-0.3c-0.6,0-1.1,0.3-1.4,0.8c-0.3,0.5-0.5,1-0.5,1.3c0.8,0,1.4-0.1,1.9-0.3c0.5-0.2,1-0.5,1.5-1
				C223.7,253.8,223.5,253.6,223.3,253.4z"/>
			<path fill="#FF4732" d="M229.5,261.3v-6.1c0-1.5-0.6-2.6-1.8-3.5l2.9-1.4c0.2,0.2,0.4,0.4,0.6,0.6c0.2,0.3,0.4,0.5,0.6,0.7
				c0.4-0.3,0.9-0.7,1.5-1c0.6-0.3,1.2-0.5,1.8-0.5l0.8,3.1c-0.6,0-1.2,0.2-1.8,0.6c-0.5,0.4-1,0.8-1.4,1.2v6.2L229.5,261.3
				L229.5,261.3z"/>
		</g>
	</g>
	<g>
		<g>
			<path fill="none" stroke="#FF4833" stroke-linecap="round" stroke-linejoin="round" stroke-miterlimit="10" d="M170.7,235.5
				c-1.2,0-2.6-0.8-2.9-2l-18.1-55.9c-0.4-1.2,0.1-2.7,1.1-3.4l47.4-34.6c1-0.7,2.6-0.7,3.6,0l47.4,34.7c1,0.7,1.5,2.3,1.1,3.5
				l-18.1,55.8c-0.4,1.2-1.7,2-2.9,2H170.7z"/>
		</g>
		
			<path fill="none" stroke="#FF4833" stroke-width="0.9019" stroke-linecap="round" stroke-linejoin="round" stroke-miterlimit="10" d="
			M168.6,234.8c4.7-19.9,27.4-19.5,27.4-19.5"/>
		<g>
			<path fill="#FF4833" d="M195.5,215.4l-24.8-44.1l25.6,43.7c0.1,0.2,0.1,0.5-0.2,0.6S195.7,215.7,195.5,215.4
				C195.5,215.5,195.5,215.4,195.5,215.4z"/>
		</g>
		
			<path fill="none" stroke="#FF4833" stroke-width="0.9019" stroke-linecap="round" stroke-linejoin="round" stroke-miterlimit="10" d="
			M223.4,195.2c0,0-22.8,0.1-27.5,20.1"/>
		<g>
			<path fill="#FF4833" d="M223.1,195.5l-36-35.5l36.7,34.9c0.2,0.2,0.2,0.5,0,0.6C223.6,195.7,223.3,195.7,223.1,195.5
				C223.1,195.5,223.1,195.5,223.1,195.5z"/>
		</g>
		
			<path fill="none" stroke="#FF4833" stroke-width="0.9019" stroke-linecap="round" stroke-linejoin="round" stroke-miterlimit="10" d="
			M250,175.2c0,0-21.9,0-26.6,19.9"/>
		<path fill="#FF4833" d="M235.9,222.6c-1.3-0.4-2.9-1-4.4-1c-7.5,0-13.6,3.4-13.6,13.4h11.5l2-0.3l0.5-0.4L235.9,222.6z"/>
	</g>
</g>
</svg>
