<?xml version="1.0" encoding="utf-8"?>
<!-- Generator: Adobe Illustrator 18.0.0, SVG Export Plug-In . SVG Version: 6.00 Build 0)  -->
<!DOCTYPE svg PUBLIC "-//W3C//DTD SVG 1.1//EN" "http://www.w3.org/Graphics/SVG/1.1/DTD/svg11.dtd">
<svg version="1.1" id="Calque_1" xmlns="http://www.w3.org/2000/svg" xmlns:xlink="http://www.w3.org/1999/xlink" x="0px" y="0px"
	 viewBox="100 182.5 200 35" enable-background="new 100 182.5 200 35" xml:space="preserve">
<g>
	<g>
		<path fill="#3498DB" d="M119.9,214.9c-0.3,0-0.7-0.1-0.9-0.4c-0.5-0.5-0.5-1.4,0-1.9l8.5-8.5h-6.3v2.7c0,1.8-1.5,3.2-3.2,3.2h-2.1
			c-1.8,0-3.2-1.5-3.2-3.2v-2.1c0-1.8,1.5-3.2,3.2-3.2h2.7v-2.7h-9.4c-0.5,0-1-0.3-1.3-0.8s-0.1-1,0.3-1.5l10.8-11
			c0.5-0.5,1.4-0.5,1.9,0s0.5,1.4,0,1.9l-8.5,8.5h6.2v-2.7c0-1.8,1.5-3.2,3.2-3.2h2.1c1.8,0,3.2,1.5,3.2,3.2v2.1
			c0,1.8-1.5,3.2-3.2,3.2h-2.7v2.7h9.4c0.5,0,1,0.3,1.3,0.8c0.2,0.5,0.1,1-0.3,1.5l-10.7,11C120.5,214.8,120.2,214.9,119.9,214.9z
			 M115.8,204.1c-0.3,0-0.5,0.2-0.5,0.5v2.1c0,0.3,0.2,0.5,0.5,0.5h2.1c0.3,0,0.5-0.2,0.5-0.5V204
			C118.5,204.1,115.8,204.1,115.8,204.1z M121.3,196h2.7c0.3,0,0.5-0.2,0.5-0.5v-2.1c0-0.3-0.2-0.5-0.5-0.5h-2.1
			c-0.3,0-0.5,0.2-0.5,0.5C121.3,193.2,121.3,196,121.3,196z"/>
	</g>
	<g enable-background="new    ">
		<path fill="#3498DB" d="M143.2,196.7c-0.2-1-0.7-1.8-1.3-2.2c-0.6-0.4-1.5-0.6-2.5-0.6c-0.7,0-1.4,0.2-1.9,0.4
			c-0.5,0.3-0.9,0.7-1.3,1.1c-0.4,0.5-0.6,1-0.7,1.7c-0.2,0.6-0.3,1.3-0.3,2c0,0.7,0.1,1.3,0.2,2c0.2,0.7,0.4,1.2,0.7,1.7
			c0.3,0.5,0.8,0.9,1.3,1.3c0.5,0.3,1.3,0.5,2,0.5c0.5,0,1-0.1,1.4-0.3s0.8-0.4,1.1-0.7s0.6-0.6,0.8-1c0.2-0.4,0.4-0.8,0.5-1.3h1.2
			c-0.2,0.6-0.3,1.1-0.6,1.7c-0.3,0.5-0.6,1-1,1.4c-0.4,0.4-0.9,0.7-1.5,0.9c-0.6,0.2-1.3,0.4-2.1,0.4c-0.9,0-1.7-0.2-2.4-0.5
			c-0.7-0.4-1.2-0.8-1.6-1.4s-0.7-1.3-0.9-2c-0.2-0.8-0.3-1.6-0.3-2.5c0-1.1,0.2-2.1,0.4-2.9c0.3-0.8,0.7-1.5,1.2-2
			c0.5-0.5,1.1-0.9,1.8-1.1c0.7-0.2,1.4-0.4,2.2-0.4c0.6,0,1.2,0.1,1.7,0.3c0.5,0.2,1,0.4,1.4,0.7s0.7,0.7,1,1.2
			c0.3,0.5,0.4,1,0.5,1.7L143.2,196.7L143.2,196.7z"/>
		<path fill="#3498DB" d="M147.6,205.3h-1v-8.7h1v1.6h0.1c0.3-0.7,0.6-1.1,1.1-1.5c0.4-0.3,1-0.4,1.7-0.4v1.1c-0.6,0-1,0.1-1.4,0.3
			s-0.7,0.5-0.9,0.8c-0.2,0.3-0.4,0.7-0.5,1.1c-0.1,0.5-0.1,0.9-0.1,1.4C147.6,201,147.6,205.3,147.6,205.3z"/>
		<path fill="#3498DB" d="M152.8,201.2c0,0.5,0.1,0.9,0.2,1.3c0.2,0.4,0.3,0.8,0.5,1.1c0.3,0.3,0.5,0.6,0.9,0.7
			c0.4,0.2,0.8,0.3,1.3,0.3c0.7,0,1.2-0.2,1.7-0.5c0.5-0.4,0.8-0.8,0.9-1.5h1.1c-0.1,0.4-0.3,0.8-0.5,1.1c-0.2,0.4-0.5,0.7-0.7,0.9
			s-0.7,0.5-1,0.6c-0.4,0.2-0.9,0.2-1.5,0.2c-0.7,0-1.3-0.1-1.8-0.4c-0.5-0.2-0.9-0.6-1.3-0.9c-0.3-0.4-0.6-0.9-0.7-1.5
			s-0.2-1.1-0.2-1.8c0-0.6,0.1-1.3,0.3-1.8c0.2-0.6,0.5-1,0.8-1.5c0.4-0.4,0.7-0.7,1.3-1c0.5-0.3,1-0.4,1.7-0.4
			c1.2,0,2.1,0.4,2.8,1.3c0.7,0.8,1,2,1,3.6H152.8z M158.4,200.4c0-0.4-0.1-0.8-0.2-1.2c-0.1-0.4-0.3-0.7-0.5-1
			c-0.2-0.3-0.5-0.5-0.8-0.6c-0.4-0.2-0.7-0.3-1.2-0.3c-0.5,0-0.8,0.1-1.2,0.3c-0.4,0.2-0.6,0.4-0.9,0.7c-0.3,0.3-0.4,0.6-0.6,1
			c-0.2,0.4-0.3,0.8-0.3,1.1H158.4z M154.6,195.6l1.9-2.3h1.3l-2.3,2.3H154.6z"/>
		<path fill="#3498DB" d="M162.1,201.2c0,0.5,0.1,0.9,0.2,1.3c0.2,0.4,0.3,0.8,0.5,1.1c0.3,0.3,0.5,0.6,0.9,0.7
			c0.4,0.2,0.8,0.3,1.3,0.3c0.7,0,1.2-0.2,1.7-0.5c0.5-0.4,0.8-0.8,0.9-1.5h1.1c-0.1,0.4-0.3,0.8-0.5,1.1c-0.2,0.4-0.5,0.7-0.7,0.9
			s-0.7,0.5-1,0.6c-0.4,0.2-0.9,0.2-1.5,0.2c-0.7,0-1.3-0.1-1.8-0.4c-0.5-0.2-0.9-0.6-1.3-0.9c-0.3-0.4-0.6-0.9-0.7-1.5
			s-0.2-1.1-0.2-1.8c0-0.6,0.1-1.3,0.3-1.8c0.2-0.6,0.5-1,0.8-1.5c0.4-0.4,0.7-0.7,1.3-1c0.5-0.3,1-0.4,1.7-0.4
			c1.2,0,2.1,0.4,2.8,1.3c0.7,0.8,1,2,1,3.6H162.1z M167.7,200.4c0-0.4-0.1-0.8-0.2-1.2c-0.1-0.4-0.3-0.7-0.5-1
			c-0.2-0.3-0.5-0.5-0.8-0.6c-0.4-0.2-0.7-0.3-1.2-0.3s-0.8,0.1-1.2,0.3c-0.4,0.2-0.6,0.4-0.9,0.7c-0.3,0.3-0.4,0.6-0.6,1
			c-0.2,0.4-0.3,0.8-0.3,1.1H167.7z M163.9,195.6l1.9-2.3h1.3l-2.3,2.3H163.9z"/>
		<path fill="#3498DB" d="M176.5,208.7h-1v-12.1h1v1.5h0.1c0.2-0.3,0.3-0.5,0.6-0.7c0.2-0.2,0.5-0.4,0.7-0.6s0.6-0.3,0.8-0.3
			c0.3-0.1,0.6-0.1,0.8-0.1c0.7,0,1.3,0.1,1.8,0.4c0.5,0.2,0.9,0.6,1.2,0.9c0.3,0.4,0.6,0.9,0.7,1.5c0.2,0.6,0.2,1.1,0.2,1.8
			c0,0.6-0.1,1.2-0.2,1.7c-0.2,0.6-0.4,1-0.7,1.5c-0.3,0.4-0.7,0.7-1.2,1c-0.5,0.3-1,0.4-1.7,0.4c-0.6,0-1.2-0.2-1.8-0.4
			c-0.6-0.3-1-0.7-1.3-1.2L176.5,208.7L176.5,208.7z M176.5,201c0,0.5,0.1,0.9,0.2,1.4c0.2,0.5,0.3,0.8,0.6,1.1
			c0.3,0.3,0.6,0.6,0.9,0.8c0.4,0.2,0.8,0.3,1.3,0.3c0.5,0,0.9-0.1,1.4-0.3c0.4-0.2,0.7-0.5,0.9-0.8c0.3-0.4,0.4-0.8,0.5-1.3
			c0.1-0.5,0.2-1,0.2-1.5c0-0.5-0.1-1-0.2-1.5c-0.2-0.4-0.4-0.8-0.6-1c-0.3-0.3-0.6-0.5-0.9-0.7c-0.4-0.2-0.7-0.2-1.1-0.2
			c-0.5,0-0.9,0.1-1.3,0.3c-0.4,0.2-0.7,0.5-0.9,0.8c-0.3,0.3-0.4,0.7-0.6,1.1C176.6,200,176.5,200.5,176.5,201z"/>
		<path fill="#3498DB" d="M189.6,200.2c0.2,0,0.4-0.1,0.7-0.1s0.5-0.1,0.6-0.2c0.2-0.1,0.3-0.2,0.3-0.4s0.1-0.4,0.1-0.5
			c0-0.5-0.2-0.9-0.5-1.3s-0.9-0.5-1.7-0.5c-0.4,0-0.7,0.1-0.9,0.1c-0.3,0.1-0.5,0.2-0.8,0.3c-0.2,0.2-0.4,0.4-0.5,0.6
			c-0.2,0.3-0.2,0.6-0.3,0.9h-1c0.1-0.5,0.2-0.9,0.4-1.3c0.2-0.4,0.5-0.7,0.8-0.9c0.3-0.2,0.7-0.4,1.1-0.5s0.8-0.2,1.3-0.2
			c0.4,0,0.8,0.1,1.3,0.2c0.4,0.1,0.7,0.3,1,0.5c0.3,0.2,0.5,0.5,0.7,0.8c0.2,0.4,0.3,0.8,0.3,1.3v4.7c0,0.4,0.1,0.6,0.2,0.7
			s0.4,0.1,0.8-0.1v0.8c-0.1,0-0.2,0.1-0.4,0.1c-0.2,0.1-0.3,0.1-0.4,0.1c-0.2,0-0.3,0-0.5-0.1c-0.2,0-0.3-0.1-0.4-0.2
			c-0.1-0.1-0.2-0.2-0.3-0.3c-0.1-0.1-0.1-0.3-0.1-0.4c0-0.2-0.1-0.3-0.1-0.4c-0.4,0.5-0.9,0.8-1.5,1c-0.5,0.3-1.1,0.4-1.8,0.4
			c-0.4,0-0.7-0.1-1.1-0.2c-0.4-0.1-0.7-0.3-0.9-0.5c-0.3-0.2-0.5-0.5-0.6-0.8s-0.2-0.7-0.2-1.1c0-1.5,1-2.4,3-2.6L189.6,200.2z
			 M191.3,200.7c-0.4,0.2-0.8,0.3-1.3,0.4c-0.4,0.1-0.9,0.1-1.3,0.2c-0.8,0.1-1.4,0.2-1.8,0.5s-0.6,0.7-0.6,1.3
			c0,0.3,0.1,0.5,0.2,0.7c0.1,0.2,0.3,0.4,0.4,0.5s0.4,0.2,0.6,0.3c0.2,0.1,0.5,0.1,0.7,0.1c0.4,0,0.8-0.1,1.1-0.2
			c0.4-0.1,0.7-0.3,1-0.5c0.3-0.2,0.5-0.5,0.7-0.8c0.2-0.3,0.3-0.7,0.3-1.1V200.7z"/>
		<path fill="#3498DB" d="M195.9,205.3h-1v-8.7h1v1.6h0.1c0.3-0.7,0.6-1.1,1.1-1.5c0.4-0.3,1-0.4,1.7-0.4v1.1c-0.6,0-1,0.1-1.4,0.3
			c-0.4,0.2-0.7,0.5-0.9,0.8s-0.4,0.7-0.5,1.1c-0.1,0.5-0.1,0.9-0.1,1.4L195.9,205.3L195.9,205.3z"/>
		<path fill="#3498DB" d="M205.3,205.3v-12h1.1v11.1h6.5v1L205.3,205.3L205.3,205.3z"/>
		<path fill="#3498DB" d="M217.9,205.5c-0.6,0-1.1-0.1-1.6-0.3c-0.5-0.2-0.9-0.5-1.3-0.8c-0.4-0.4-0.6-0.8-0.8-1.4
			c-0.2-0.6-0.3-1.3-0.3-2c0-0.6,0.1-1.3,0.3-1.8c0.2-0.6,0.4-1,0.7-1.5s0.7-0.7,1.3-1c0.5-0.3,1.1-0.4,1.8-0.4s1.3,0.1,1.8,0.4
			c0.5,0.3,0.9,0.6,1.3,1c0.3,0.4,0.6,0.9,0.7,1.5c0.2,0.6,0.3,1.1,0.3,1.8c0,0.7-0.1,1.3-0.3,1.9c-0.2,0.6-0.5,1-0.8,1.5
			s-0.8,0.7-1.3,0.9C219.1,205.5,218.4,205.5,217.9,205.5z M220.8,200.9c0-0.5-0.1-1-0.2-1.5s-0.3-0.8-0.5-1.1
			c-0.2-0.3-0.5-0.6-0.9-0.8c-0.4-0.2-0.8-0.3-1.4-0.3c-0.5,0-1,0.1-1.4,0.3c-0.4,0.2-0.7,0.5-0.9,0.8c-0.2,0.4-0.4,0.7-0.5,1.1
			c-0.1,0.4-0.2,0.9-0.2,1.4c0,0.5,0.1,1,0.2,1.5c0.2,0.4,0.3,0.8,0.6,1.1s0.6,0.6,0.9,0.7c0.4,0.2,0.8,0.3,1.3,0.3
			c0.5,0,1-0.1,1.4-0.3c0.4-0.2,0.7-0.5,0.9-0.8s0.4-0.7,0.5-1.1C220.7,201.9,220.8,201.4,220.8,200.9z"/>
		<path fill="#3498DB" d="M222.2,193.8h1.1v1.7h-1.1V193.8z M223.8,205.3v-8.7h1v8.7H223.8z M224.9,193.8h1.1v1.7h-1.1V193.8z"/>
		<path fill="#3498DB" d="M233.5,199.4c-0.2-0.6-0.5-1.1-0.9-1.5c-0.5-0.4-1-0.5-1.7-0.5c-0.5,0-0.9,0.1-1.3,0.3
			c-0.4,0.2-0.7,0.5-0.9,0.8c-0.2,0.4-0.4,0.7-0.5,1.2c-0.1,0.4-0.2,0.9-0.2,1.3c0,0.5,0.1,0.9,0.2,1.4c0.1,0.4,0.3,0.8,0.5,1.1
			c0.3,0.3,0.5,0.6,0.9,0.8c0.4,0.2,0.8,0.3,1.4,0.3c0.7,0,1.4-0.2,1.8-0.6c0.5-0.4,0.7-1,0.8-1.7h1c-0.1,0.5-0.2,0.9-0.4,1.3
			c-0.2,0.4-0.5,0.7-0.7,1s-0.7,0.5-1.1,0.7c-0.4,0.2-0.9,0.2-1.5,0.2c-0.7,0-1.3-0.1-1.8-0.4c-0.5-0.2-0.9-0.6-1.3-0.9
			c-0.3-0.4-0.6-0.9-0.7-1.5c-0.2-0.6-0.2-1.1-0.2-1.8c0-0.6,0.1-1.2,0.3-1.7c0.2-0.6,0.4-1,0.8-1.5c0.3-0.4,0.7-0.8,1.3-1
			c0.5-0.2,1-0.4,1.7-0.4c1,0,1.8,0.3,2.5,0.7c0.6,0.5,1,1.2,1.1,2.2L233.5,199.4L233.5,199.4z"/>
		<path fill="#3498DB" d="M241.4,205.3v-12h4.4c0.8,0,1.4,0.1,1.9,0.3c0.5,0.2,0.9,0.4,1.2,0.7c0.3,0.3,0.5,0.7,0.6,1.1
			c0.1,0.4,0.2,0.8,0.2,1.3c0,0.7-0.2,1.2-0.4,1.7c-0.3,0.4-0.6,0.8-1,1s-0.9,0.4-1.5,0.5c-0.6,0.1-1.1,0.2-1.7,0.2h-2.6v5.3
			L241.4,205.3L241.4,205.3z M245.2,199c0.5,0,1-0.1,1.5-0.1c0.4-0.1,0.8-0.2,1.1-0.4c0.3-0.2,0.5-0.4,0.7-0.7
			c0.2-0.3,0.3-0.7,0.3-1.3c0-0.8-0.3-1.3-0.7-1.7c-0.5-0.4-1.3-0.6-2.4-0.6h-3v4.8L245.2,199L245.2,199z"/>
		<path fill="#3498DB" d="M255.5,200.2c0.2,0,0.4-0.1,0.7-0.1c0.3-0.1,0.5-0.1,0.6-0.2c0.2-0.1,0.3-0.2,0.3-0.4
			c0.1-0.2,0.1-0.4,0.1-0.5c0-0.5-0.2-0.9-0.5-1.3s-0.9-0.5-1.7-0.5c-0.4,0-0.7,0.1-0.9,0.1c-0.3,0.1-0.5,0.2-0.8,0.3
			c-0.2,0.2-0.4,0.4-0.5,0.6c-0.1,0.3-0.2,0.6-0.3,0.9h-1c0.1-0.5,0.2-0.9,0.4-1.3c0.2-0.4,0.5-0.7,0.8-0.9c0.3-0.2,0.7-0.4,1.1-0.5
			s0.8-0.2,1.3-0.2c0.4,0,0.8,0.1,1.3,0.2c0.4,0.1,0.7,0.3,1,0.5c0.3,0.2,0.5,0.5,0.7,0.8c0.2,0.4,0.3,0.8,0.3,1.3v4.7
			c0,0.4,0.1,0.6,0.2,0.7s0.4,0.1,0.8-0.1v0.8c-0.1,0-0.2,0.1-0.4,0.1c-0.2,0.1-0.3,0.1-0.4,0.1c-0.2,0-0.3,0-0.5-0.1
			c-0.2,0-0.3-0.1-0.4-0.2c-0.1-0.1-0.2-0.2-0.3-0.3c-0.1-0.1-0.1-0.3-0.1-0.4c0-0.2-0.1-0.3-0.1-0.4c-0.4,0.5-0.9,0.8-1.5,1
			c-0.5,0.3-1.1,0.4-1.8,0.4c-0.4,0-0.7-0.1-1.1-0.2s-0.7-0.3-0.9-0.5c-0.3-0.2-0.5-0.5-0.6-0.8c-0.2-0.3-0.2-0.7-0.2-1.1
			c0-1.5,1-2.4,3-2.6L255.5,200.2z M257.3,200.7c-0.4,0.2-0.8,0.3-1.3,0.4c-0.4,0.1-0.9,0.1-1.3,0.2c-0.8,0.1-1.4,0.2-1.8,0.5
			c-0.4,0.3-0.6,0.7-0.6,1.3c0,0.3,0.1,0.5,0.2,0.7c0.1,0.2,0.3,0.4,0.4,0.5c0.2,0.1,0.4,0.2,0.6,0.3c0.2,0.1,0.5,0.1,0.7,0.1
			c0.4,0,0.8-0.1,1.1-0.2c0.4-0.1,0.7-0.3,1-0.5c0.3-0.2,0.5-0.5,0.7-0.8c0.2-0.3,0.3-0.7,0.3-1.1V200.7L257.3,200.7z"/>
		<path fill="#3498DB" d="M261.9,205.3h-1v-8.7h1v1.6h0.1c0.3-0.7,0.6-1.1,1.1-1.5c0.4-0.3,1-0.4,1.7-0.4v1.1c-0.6,0-1,0.1-1.4,0.3
			c-0.4,0.2-0.7,0.5-0.9,0.8c-0.2,0.3-0.4,0.7-0.5,1.1c-0.1,0.4-0.1,0.9-0.1,1.4V205.3L261.9,205.3z"/>
		<path fill="#3498DB" d="M267,201.2c0,0.5,0.1,0.9,0.2,1.3c0.2,0.4,0.3,0.8,0.5,1.1c0.2,0.3,0.5,0.6,0.9,0.7
			c0.4,0.2,0.8,0.3,1.3,0.3c0.7,0,1.2-0.2,1.7-0.5c0.5-0.4,0.8-0.8,0.9-1.5h1.1c-0.1,0.4-0.3,0.8-0.5,1.1c-0.2,0.4-0.5,0.7-0.7,0.9
			c-0.3,0.3-0.7,0.5-1,0.6c-0.4,0.2-0.9,0.2-1.5,0.2c-0.7,0-1.3-0.1-1.8-0.4c-0.5-0.2-0.9-0.6-1.3-0.9c-0.3-0.4-0.6-0.9-0.7-1.5
			c-0.2-0.6-0.2-1.1-0.2-1.8c0-0.6,0.1-1.3,0.3-1.8c0.2-0.6,0.5-1,0.8-1.5c0.4-0.4,0.7-0.7,1.3-1c0.5-0.3,1-0.4,1.7-0.4
			c1.2,0,2.1,0.4,2.8,1.3c0.7,0.8,1,2,1,3.6H267z M272.7,200.4c0-0.4-0.1-0.8-0.2-1.2c-0.1-0.4-0.3-0.7-0.5-1
			c-0.2-0.3-0.5-0.5-0.8-0.6c-0.4-0.2-0.7-0.3-1.2-0.3s-0.8,0.1-1.2,0.3c-0.4,0.2-0.6,0.4-0.9,0.7c-0.3,0.3-0.4,0.6-0.6,1
			c-0.2,0.4-0.3,0.8-0.3,1.1H272.7z"/>
		<path fill="#3498DB" d="M276.8,205.3h-1v-8.7h1v1.2c0.4-0.4,0.8-0.8,1.3-1c0.4-0.3,0.9-0.4,1.6-0.4c0.5,0,1,0.1,1.5,0.3
			c0.5,0.2,0.8,0.5,1.1,0.9c0.2,0.3,0.3,0.6,0.4,0.9c0.1,0.3,0.1,0.7,0.1,1v5.6h-1v-5.6c0-0.8-0.2-1.4-0.5-1.8
			c-0.4-0.4-0.9-0.6-1.7-0.6c-0.3,0-0.6,0.1-0.8,0.2c-0.3,0.1-0.5,0.2-0.7,0.4s-0.4,0.3-0.5,0.5c-0.2,0.2-0.3,0.4-0.3,0.6
			c-0.1,0.3-0.2,0.5-0.2,0.8c0,0.3-0.1,0.5-0.1,0.8L276.8,205.3L276.8,205.3z"/>
		<path fill="#3498DB" d="M288.1,205.3c-0.1,0-0.3,0.1-0.5,0.1s-0.4,0.1-0.7,0.1c-0.5,0-0.9-0.1-1.1-0.4c-0.3-0.3-0.4-0.7-0.4-1.4
			v-6.3h-1.2v-0.8h1.2v-2.4h1v2.4h1.6v0.8h-1.6v6c0,0.2,0,0.4,0,0.6s0.1,0.3,0.1,0.4c0.1,0.1,0.2,0.2,0.3,0.2
			c0.1,0.1,0.3,0.1,0.5,0.1c0.2,0,0.3,0,0.4-0.1c0.2-0.1,0.3-0.1,0.4-0.1L288.1,205.3L288.1,205.3z"/>
	</g>
	<path fill="none" stroke="#3498DB" stroke-width="0.2613" stroke-miterlimit="10" d="M123.5,213.1h161.3c6.9,0,12.5-5.6,12.5-12.5
		v-0.7c0-6.9-5.6-12.5-12.5-12.5H123.5"/>
	<path fill="none" stroke="#3498DB" stroke-width="0.2613" stroke-miterlimit="10" d="M115.2,213.1c-6.9,0-12.5-5.6-12.5-12.5v-0.7
		c0-6.9,5.6-12.5,12.5-12.5"/>
</g>
</svg>
