<?xml version="1.0" encoding="utf-8"?>
<!-- Generator: Adobe Illustrator 18.0.0, SVG Export Plug-In . SVG Version: 6.00 Build 0)  -->
<!DOCTYPE svg PUBLIC "-//W3C//DTD SVG 1.1//EN" "http://www.w3.org/Graphics/SVG/1.1/DTD/svg11.dtd">
<svg version="1.1" id="Calque_1" xmlns="http://www.w3.org/2000/svg" xmlns:xlink="http://www.w3.org/1999/xlink" x="0px" y="0px"
	 viewBox="0 0 960 560" enable-background="new 0 0 960 560" xml:space="preserve">
<g>
	<path fill="#FFFFFF" d="M278.2,315c-3.2,2.5-6.9,3.6-11.2,3.6c-4.5,0-8.8-1.2-13.1-3.8c-4.4-2.5-7.9-5.9-10.9-9.9l-19.4,24
		c5.4,7,11.8,12,19.4,15s15.6,4.5,24,4.5c12.6,0,23.8-4.2,33.5-12.7c9.7-8.4,14.5-18.8,14.5-30.7c0-8.8-2.4-16.6-7.2-23.2
		c-4.8-6.6-11.6-12.2-20.2-16.9L275,258c-4.9-2.6-8.9-5-12.2-7.2c-3.3-2.2-5-5.4-5-9.5c0-3.6,1.5-6.3,4.5-7.8
		c3.1-1.5,6.9-2.3,11.4-2.3c3.8,0,7.1,0.7,9.8,2.1c2.7,1.4,5.5,3.5,8.4,6.4l18.4-21.7c-5.4-5.8-11.1-9.9-17.3-12.4
		c-6.2-2.5-13.4-3.6-21.6-3.6c-11,0-21.3,3.9-31.1,11.6c-9.7,7.7-14.6,16.9-14.6,27.8c0,9.3,2.4,16.9,7.2,23
		c4.8,6,11.2,11.2,19.1,15.4l12.6,6.9c6.5,3.6,11.2,6.7,14,9.2s4.2,5.5,4.2,9.2C283,309.2,281.4,312.6,278.2,315z"/>
	<path fill="#FFFFFF" d="M331.3,300L331.3,300c0,10.5,1.5,19.5,4.8,27c3.3,7.4,8.8,14.8,16.5,22l27.7-14.2
		c-11.6-8.8-17.6-20.4-17.6-34.8v-31.6H385v-29.7h-22.3v-32.2h-31.4v32.2h-20.7v29.7h20.7V300z"/>
	<path fill="#FFFFFF" d="M407.4,339.6c7.4,6.2,15.9,9.3,26,9.3c7,0,13.1-1.7,18.5-5c5.4-3.3,9.9-6.6,13.7-9.9c1.8,2.5,3.8,5,5.9,7.5
		c2.1,2.6,4,4.5,5.9,5.9l27.8-14.2c-11.6-8.8-17.6-20.4-17.6-34.8v-59.8h-31.4v61.1c-1.7,4.1-4,8.2-6.8,12.1c-2.7,4-7,5.9-12.4,5.9
		c-5.8,0-8.9-5.9-8.9-17.6v-61.5h-31.4v77.5C396.6,325.7,400,333.5,407.4,339.6z"/>
	<path fill="#FFFFFF" d="M558.7,348.5c9.6,0,18-1.7,25.2-5s13.5-8.5,19-15.7l-20.2-19.9c-2.1,3.5-5.4,6.2-9.6,8
		c-4.3,1.8-9.1,2.7-14.4,2.7c-6.3,0-11-2.7-14.3-8.3c-3.3-5.5-5-11.9-5-19.2c0-7.2,1.7-13.5,5-19.1c3.4-5.5,8.1-8.3,14.2-8.3
		c5.2,0,10,1.1,14.5,3.2c4.5,2.1,7.7,4.6,9.5,7.5l20.2-19.9c-5.8-7.4-12.1-12.8-19-15.9c-6.9-3.1-15.3-4.7-25.2-4.7
		c-14.5,0-26.8,5.8-36.8,17.3s-15,24.8-15,39.9c0,15.1,5,28.4,15,39.9C532,342.7,544.2,348.5,558.7,348.5z"/>
	<path fill="#FFFFFF" d="M642.8,284c1.7-4.5,3.2-9.1,5.8-13.5c2.6-4.5,7.9-6.6,16-6.6c3.4,0,5.5,1.3,6.4,4c1,2.6,1.4,6.4,1.4,11.1
		v3.2v61.5h32.2V265c0-10.1-3.2-17.8-9.7-23.2c-6.4-5.5-13.5-8.1-21.5-8.1c-8.4,0-15,1.7-19.5,5.1c-4.5,3.5-8,6.9-11.3,10.2v-63.1
		h-32.2v157.8h32.2L642.8,284z"/>
	<path fill="#FFFFFF" d="M766,348.5c11.7,0,20.8-2.3,27.3-6.9c6.4-4.5,11.6-9.2,15.8-13.7l-19.2-17.3c-2,2.3-4.5,4.5-7.8,6.4
		c-3.2,2-8.5,3-16,3c-4.9,0-9.1-1.5-12.7-4.4c-3.6-2.9-5.4-6.2-5.4-9.8c15.1,0,27.8-3.1,38.3-9.5c10.4-6.4,18.8-15.8,25.3-28.3
		c-3.4-10.8-8.9-19.2-16.7-25c-7.8-5.9-17.3-8.8-28.8-8.8c-14.5,0-26.4,5.7-35.6,17.2c-9.3,11.4-13.9,24.8-13.9,40.1
		c0,15.3,4.7,28.6,14,40.1C740,342.7,751.8,348.5,766,348.5z M752.3,271.2c3.4-5.2,7.9-7.8,13.7-7.8c5.4,0,9,1,11,2.9
		c2,1.9,3.5,3.9,4.5,5.9c-5,4.5-10.1,7.6-15.2,9.5c-5.1,1.9-11.5,2.9-19.1,2.9C747.3,280.7,748.9,276.3,752.3,271.2z"/>
	<path fill="#FFFFFF" d="M830.3,284v59.6h32.2v-60.8c4.1-4,8.6-7.9,13.7-11.9c5.2-4,10.9-5.9,17.2-5.9l-8-30.9
		c-6.3,0-12.2,1.6-17.8,4.8s-10.6,6.4-14.9,9.6c-1.7-2.3-3.5-4.7-5.5-7.2s-4-4.6-6.2-6.3l-28,14.2C824.6,258,830.3,269.6,830.3,284z
		"/>
	<path fill="#FFFFFF" d="M955,372.4H157.6c0.3-0.5,0.6-1,0.7-1.5l33.2-102.4c1-3-0.3-6.7-2.8-8.4l-86.9-63.6
		c-1.3-0.9-2.8-1.4-4.4-1.4c-1.7,0-3.3,0.5-4.4,1.4L6.3,259.8c-2.4,1.8-3.6,5.4-2.7,8.4l33.2,102.6c0.9,2.9,4.1,5.2,7.2,5.2H955
		c1.1,0,1.8-0.7,1.8-1.8S956.1,372.4,955,372.4z M7,267.1c-0.5-1.4,0.2-3.4,1.3-4.4l86.8-63.4c0.5-0.4,1.4-0.6,2.2-0.6
		c0.9,0,1.7,0.2,2.3,0.6l85.2,62.2c-4.8,0.6-13,2.1-21.2,6.1c-12.3,6.1-20.5,15.7-24.4,28.5l-64.9-61.7l-1.4,1.4l63.2,62.3
		c-4.9,0.5-13.7,2.1-22.4,6.4c-12.2,6-20.3,15.2-24.3,27.3l-44.5-76.3l-1.7,1l44,78.2c-9.2,0.7-38.2,5-47.6,32.6L7,267.1z
		 M129.5,372.4H44c-0.6,0-1.2-0.2-2-0.6c3.4-13.1,11.6-22.7,24.5-28.4c10.1-4.5,19.9-5.1,22.5-5.2c0.4,0.3,0.7,0.3,1,0.3h1l0.3-0.3
		l0.7-0.8l0.1-0.4c3.4-14.4,12.5-24.7,27.1-30.6c11.2-4.6,21.4-4.7,21.5-4.7h0.3c0.2,0,0.4,0,0.6-0.2c0.1-0.1,0.3-0.1,0.4-0.2h0.5
		v-0.1h0.1v-0.7c0-0.1,0.1-0.2,0.1-0.3c3.3-13.7,11.5-23.7,24.5-29.7c9-4.2,17.9-5.1,21.3-5.4c0.2,0.8,0.2,1.5,0,2.1l-26.1,80.8
		c-2.1-0.4-4.5-0.5-6.5-0.5C141.3,347.6,130.4,358.1,129.5,372.4z"/>
</g>
</svg>
