<?xml version="1.0" encoding="utf-8"?>
<!-- Generator: Adobe Illustrator 18.0.0, SVG Export Plug-In . SVG Version: 6.00 Build 0)  -->
<!DOCTYPE svg PUBLIC "-//W3C//DTD SVG 1.1//EN" "http://www.w3.org/Graphics/SVG/1.1/DTD/svg11.dtd">
<svg version="1.1" id="Calque_1" xmlns="http://www.w3.org/2000/svg" xmlns:xlink="http://www.w3.org/1999/xlink" x="0px" y="0px"
	 viewBox="0 0 400 400" enable-background="new 0 0 400 400" xml:space="preserve">
<circle fill="#FF4732" cx="200.4" cy="199.4" r="175.6"/>
<g>
	<g>
		<path fill="#FFFFFF" d="M272.1,176.4c-11.1,2.9-22.5-3.7-25.5-14.8c-2.9-11.1,3.7-22.5,14.8-25.5c11.1-2.9,22.5,3.7,25.5,14.8
			C289.9,162,283.2,173.5,272.1,176.4z M263,141.9c-7.9,2.1-12.6,10.2-10.5,18.1c2.1,7.9,10.2,12.6,18.1,10.5
			c7.9-2.1,12.6-10.2,10.5-18.1C279.1,144.6,270.9,139.9,263,141.9z"/>
	</g>
	<path fill="#FFFFFF" d="M207.2,234c-1.1,0.3-2.2,0.6-3.2,0.9l3.6,13.8c1.1-0.2,2.1-0.5,3.2-0.8c11.8-3.1,14.5-7.2,13.5-11.1
		C223.4,233.1,219,230.9,207.2,234z"/>
	<g>
		<path fill="#FFFFFF" d="M223.2,298.3l-35.4,9.3c-3.1,0.8-5.9,0.2-7.5-1.7c-1-1.2-2.5-4-0.3-8.9l0.2-0.5c1.7-3.8,0.8-10.9-0.6-16.3
			l-13.1-49.8c-3.9-14.9-11.8-16-12.7-16.1l0.3-6c1.1,0,2.1,0.1,3.2,0.3c1.6,0.2,3.3,0.4,4.6,0.1l27.8-7.3c1.9-0.5,3.8-0.9,6-1.1
			l2.6-0.3l18.6,70.6c1.4,5.4,4.1,12,7.5,14.5l0.4,0.3c4.3,3.2,4.4,6.3,4.1,7.9C228.3,295.6,226.3,297.5,223.2,298.3z M184.8,302
			c0.2,0,0.6,0,1.3-0.1l35.4-9.3c0.7-0.2,1.1-0.4,1.2-0.5c-0.1-0.3-0.6-1-1.7-1.9l-0.4-0.3c-5.7-4.2-8.7-13.8-9.8-17.8l-17.2-65.4
			c-0.9,0.2-1.8,0.4-2.6,0.6l-26.3,6.9c2.8,3,5.6,7.7,7.5,14.8l13.1,49.8c1,4,3.1,13.8,0.3,20.3l-0.2,0.5
			C184.8,300.8,184.8,301.6,184.8,302z"/>
	</g>
	<path fill="#FFFFFF" d="M231.9,88c-12.8,3.4-18.7,51.5-53.4,60.6l-27.8,7.3c-16,4.2-25.5,20.6-21.3,36.6
		c3.5,13.3,15.4,22.1,28.4,22.3c2.7,0,5.4-0.2,8.1-1l27.8-7.3c1.9-0.5,3.8-0.8,5.6-1.1c32.2-3.9,58.7,30.7,70.7,27.5
		c7.9-2.1,6.3-40.4-3.2-76.6C257.3,120,239.8,85.9,231.9,88z"/>
</g>
</svg>
