<?xml version="1.0" encoding="utf-8"?>
<!-- Generator: Adobe Illustrator 18.0.0, SVG Export Plug-In . SVG Version: 6.00 Build 0)  -->
<!DOCTYPE svg PUBLIC "-//W3C//DTD SVG 1.1//EN" "http://www.w3.org/Graphics/SVG/1.1/DTD/svg11.dtd">
<svg version="1.1" id="Calque_1" xmlns="http://www.w3.org/2000/svg" xmlns:xlink="http://www.w3.org/1999/xlink" x="0px" y="0px"
	 viewBox="0 0 400 400" enable-background="new 0 0 400 400" xml:space="preserve">
<circle fill="#FF4732" cx="200" cy="200" r="175.6"/>
<g>
	<rect x="128.1" y="243.1" fill="#FFFFFF" width="27.4" height="27.4"/>
	<rect x="166.8" y="243.1" fill="#FFFFFF" width="27.4" height="27.4"/>
	<rect x="205.5" y="243.1" fill="#FFFFFF" width="27.4" height="27.4"/>
	<rect x="244.1" y="243.1" fill="#FFFFFF" width="27.4" height="27.4"/>
	<rect x="128.1" y="206.8" fill="#FFFFFF" width="27.4" height="27.4"/>
	<rect x="166.8" y="206.8" fill="#FFFFFF" width="27.4" height="27.4"/>
	<path fill="#FFFFFF" d="M205.5,206.8v27.4h27.4v-27.4H205.5z M227.7,229h-17v-17h17V229z"/>
	<rect x="244.1" y="206.8" fill="#FFFFFF" width="27.4" height="27.4"/>
	<rect x="166.8" y="170.6" fill="#FFFFFF" width="27.4" height="27.4"/>
	<rect x="205.5" y="170.6" fill="#FFFFFF" width="27.4" height="27.4"/>
	<rect x="244.1" y="170.6" fill="#FFFFFF" width="27.4" height="27.4"/>
	<path fill="#FFFFFF" d="M167,138.6c0,4.1-3.3,7.4-7.4,7.4l0,0c-4.1,0-7.4-3.3-7.4-7.4v-20.9c0-4.1,3.3-7.4,7.4-7.4l0,0
		c4.1,0,7.4,3.3,7.4,7.4V138.6z"/>
	<path fill="#FFFFFF" d="M284.2,129.5h-32.3v9.1c0,6.3-5.1,11.5-11.5,11.5c-6.3,0-11.5-5.1-11.5-11.5v-9.1h-57.8v9.1
		c0,6.3-5.1,11.5-11.5,11.5c-6.3,0-11.5-5.1-11.5-11.5v-9.1h-32.3c-4.5,0-8.2,3.7-8.2,8.2v143.7c0,4.5,3.7,8.2,8.2,8.2h168.4
		c4.5,0,8.2-3.7,8.2-8.2V137.7C292.4,133.2,288.7,129.5,284.2,129.5z M279.4,278.7H120.6V160.5h158.8V278.7z"/>
	<path fill="#FFFFFF" d="M247.7,138.6c0,4.1-3.3,7.4-7.4,7.4l0,0c-4.1,0-7.4-3.3-7.4-7.4v-20.9c0-4.1,3.3-7.4,7.4-7.4l0,0
		c4.1,0,7.4,3.3,7.4,7.4V138.6z"/>
</g>
</svg>
