<?xml version="1.0" encoding="utf-8"?>
<!-- Generator: Adobe Illustrator 18.0.0, SVG Export Plug-In . SVG Version: 6.00 Build 0)  -->
<!DOCTYPE svg PUBLIC "-//W3C//DTD SVG 1.1//EN" "http://www.w3.org/Graphics/SVG/1.1/DTD/svg11.dtd">
<svg version="1.1" id="Calque_1" xmlns="http://www.w3.org/2000/svg" xmlns:xlink="http://www.w3.org/1999/xlink" x="0px" y="0px"
	 viewBox="0 0 400 400" enable-background="new 0 0 400 400" xml:space="preserve">
<circle fill="#FF4732" cx="200.4" cy="199.4" r="175.6"/>
<path fill-rule="evenodd" clip-rule="evenodd" fill="#FFFFFF" d="M101,232h61.4c0.2,1.8,1.7,3.2,3.6,3.2h40.6c1.8,0,3.4-1.4,3.6-3.2
	h7.9v15.8H101c-2,0-3.6-1.6-3.6-3.6v-8.6C97.4,233.6,99,232,101,232L101,232z M238.2,173.2h53.3c6.6,0,12,5.4,12,12v82.7
	c0,6.6-5.4,12-12,12h-53.3c-6.6,0-12-5.4-12-12v-82.7C226.2,178.6,231.6,173.2,238.2,173.2L238.2,173.2z M246.8,185.6
	c-4.5,0-8.1,3.6-8.1,8.1v65.8c0,4.4,3.6,8.1,8.1,8.1h36c4.4,0,8.1-3.6,8.1-8.1v-65.8c0-4.4-3.6-8.1-8.1-8.1H246.8L246.8,185.6z
	 M124.6,119c-10.2,0-18.5,8.3-18.5,18.5v65.8c0,10.2,8.3,18.5,18.5,18.5H218v-13.1h-83.4c-7.9,0-14.3-6.4-14.3-14.3v-47.9
	c0-7.9,6.4-14.3,14.3-14.3H238c7.9,0,14.3,6.5,14.3,14.3V165h14.1v-27.5c0-10.2-8.3-18.5-18.5-18.5H124.6z"/>
</svg>
