<?xml version="1.0" encoding="utf-8"?>
<!-- Generator: Adobe Illustrator 18.0.0, SVG Export Plug-In . SVG Version: 6.00 Build 0)  -->
<!DOCTYPE svg PUBLIC "-//W3C//DTD SVG 1.1//EN" "http://www.w3.org/Graphics/SVG/1.1/DTD/svg11.dtd">
<svg version="1.1" id="Calque_1" xmlns="http://www.w3.org/2000/svg" xmlns:xlink="http://www.w3.org/1999/xlink" x="0px" y="0px"
	 viewBox="0 0 400 400" enable-background="new 0 0 400 400" xml:space="preserve">
<circle fill="#FF4732" cx="200.4" cy="200" r="175.6"/>
<g>
	<path fill="#FFFFFF" d="M122.3,265.9c-1.5-1.2-3.4-11.3-0.8-13.2c2.2-1.6,2.4-4,5-7.1c1-1.2,1.5-6.1,0.4-7.3
		c-1.1-1.2-0.8-15-15.2-15c-15.8,0-14.1,13.8-15.2,15c-1.1,1.2-0.7,6.1,0.4,7.3c2.6,3.1,2.8,5.5,4.9,7.1c2.7,1.9,0.8,12-0.8,13.2
		c-5.2,4.1-18.4,8-18.4,16v7.2c0,2,1.7,3.7,3.8,3.7c16.7,3.2,33.5,3.3,50.4,0c2.1,0,3.8-1.6,3.8-3.7v-7.2
		C140.7,274,127.5,270,122.3,265.9z"/>
	<path fill="#FFFFFF" d="M210.6,265.9c-1.5-1.2-3.4-11.3-0.8-13.2c2.2-1.6,2.4-4,5-7.1c1-1.2,1.5-6.1,0.4-7.3
		c-1.1-1.2-0.8-15-15.2-15c-15.8,0-14.1,13.8-15.2,15c-1.1,1.2-0.7,6.1,0.4,7.3c2.6,3.1,2.8,5.5,5,7.1c2.7,1.9,0.8,12-0.8,13.2
		c-5.2,4.1-18.4,8-18.4,16v7.2c0,2,1.7,3.7,3.8,3.7c16.7,3.2,33.5,3.3,50.4,0c2.1,0,3.8-1.6,3.8-3.7v-7.2
		C229,274,215.8,270,210.6,265.9z"/>
	<path fill="#FFFFFF" d="M210.6,113.6c-1.5-1.2-3.4-11.3-0.8-13.2c2.2-1.6,2.4-4,5-7.1c1-1.2,1.5-6.1,0.4-7.3
		c-1.1-1.2-0.8-15-15.2-15c-15.8,0-14.1,13.8-15.2,15c-1.1,1.2-0.7,6.1,0.4,7.3c2.6,3.1,2.8,5.5,5,7.1c2.7,1.9,0.8,12-0.8,13.2
		c-5.2,4.1-18.4,8-18.4,15.9v7.2c0,2,1.7,3.7,3.8,3.7c16.7,3.2,33.5,3.3,50.4,0c2.1,0,3.8-1.6,3.8-3.7v-7.2
		C229,121.6,215.8,117.7,210.6,113.6z"/>
	<path fill="#FFFFFF" d="M298.9,265.9c-1.5-1.2-3.4-11.3-0.8-13.2c2.2-1.6,2.4-4,5-7.1c1-1.2,1.5-6.1,0.4-7.3
		c-1.1-1.2-0.8-15-15.2-15c-15.8,0-14,13.8-15.1,15c-1.1,1.2-0.7,6.1,0.3,7.3c2.6,3.1,2.8,5.5,5,7.1c2.7,1.9,0.8,12-0.8,13.2
		c-5.3,4.1-18.4,8-18.4,16v7.2c0,2,1.7,3.7,3.8,3.7c16.7,3.2,33.5,3.3,50.4,0c2.1,0,3.9-1.6,3.9-3.7v-7.2
		C317.4,274,304.2,270,298.9,265.9z"/>
	<path fill="#FFFFFF" d="M290.9,176.3h-88.5v-18.8c0-1.3-1-2.3-2.3-2.3c-1.3,0-2.3,1-2.3,2.3v18.8h-88.4l0,28.2c0,1.3,1,2.3,2.3,2.3
		c1.3,0,2.3-1,2.3-2.3v-23.5h83.8v23.5c0,1.3,1,2.3,2.3,2.3c1.3,0,2.3-1,2.3-2.3v-23.5h83.8v23.5c0,1.3,1,2.3,2.3,2.3
		c1.3,0,2.3-1,2.3-2.3L290.9,176.3z"/>
</g>
</svg>
